<svg xmlns="http://www.w3.org/2000/svg" viewBox="0 0 900 1200" role="img" aria-labelledby="t d">
<title id="t">Bhagavad Gita editorial artwork</title><desc id="d">An original golden illustration of a chariot at sunrise, representing duty, clarity and action without attachment.</desc>
<defs><linearGradient id="sky" x1="0" y1="0" x2="0" y2="1"><stop stop-color="#281830"/><stop offset=".42" stop-color="#a54f3c"/><stop offset="1" stop-color="#efc66b"/></linearGradient><radialGradient id="sun"><stop stop-color="#fff8cb"/><stop offset=".35" stop-color="#ffd572"/><stop offset="1" stop-color="#f2aa42" stop-opacity="0"/></radialGradient></defs>
<rect width="900" height="1200" fill="url(#sky)"/><circle cx="450" cy="480" r="310" fill="url(#sun)"/><g opacity=".22" stroke="#fff4cd" fill="none"><circle cx="450" cy="480" r="180"/><circle cx="450" cy="480" r="240"/><path d="M450 175v610M145 480h610M235 265l430 430M665 265L235 695"/></g>
<path d="M0 820c175-75 330-92 470-47 155 50 288 38 430-30v457H0z" fill="#3a1f22"/>
<g fill="#171313"><circle cx="330" cy="735" r="62"/><circle cx="615" cy="735" r="62"/><path d="M300 720h350l-55-115H400z"/><path d="M430 605l-45-165h34l74 165z"/><path d="M595 607l46-182h32l-8 190z"/><path d="M420 442c42-61 85-96 130-105 25 37 39 76 43 118-59 0-116-5-173-13z"/></g>
<g fill="#f8d879"><circle cx="479" cy="360" r="25"/><path d="M459 382h42l27 119h-91z"/><circle cx="612" cy="378" r="24"/><path d="M591 399h42l24 111h-85z"/></g>
<path d="M130 930h640" stroke="#f8d879" stroke-width="4"/><text x="450" y="1010" text-anchor="middle" font-family="Georgia,serif" font-size="74" fill="#fff4d0">BHAGAVAD GITA</text><text x="450" y="1070" text-anchor="middle" font-family="monospace" font-size="20" letter-spacing="5" fill="#f8d879">DHARMA · ACTION · CLARITY</text><text x="450" y="1120" text-anchor="middle" font-family="Georgia,serif" font-size="24" fill="#ead9bc">Act fully. Release the claim to the result.</text>
</svg>